<svg xmlns="http://www.w3.org/2000/svg" width="215" height="41" viewBox="0 0 215 41"><title>OJ103910576</title><rect width="215" height="41" fill="#2f2f2f"/><rect x="13" y="11" width="9" height="9" fill="#f25022"/><rect x="13" y="21" width="9" height="9" fill="#00a4ef"/><rect x="23" y="11" width="9" height="9" fill="#7fba00"/><rect x="23" y="21" width="9" height="9" fill="#ffb900"/><path d="M51.9,25.5H46.1V15h1.8v9h4Z" fill="#fff"/><path d="M56.5,25.7a3.8,3.8,0,0,1-3.9-3.9,3.8,3.8,0,0,1,4-4,3.8,3.8,0,0,1,2.8,1.1,4,4,0,0,1,1,2.8,4,4,0,0,1-1.1,2.9A3.9,3.9,0,0,1,56.5,25.7Zm0-6.5a1.7,1.7,0,0,0-1.5.7,2.7,2.7,0,0,0-.6,1.9,2.9,2.9,0,0,0,.6,1.9,2,2,0,0,0,1.5.6,2.1,2.1,0,0,0,1.6-.6,3.6,3.6,0,0,0,.5-1.9,3.1,3.1,0,0,0-.5-1.9A1.9,1.9,0,0,0,56.5,19.2Z" fill="#fff"/><path d="M68.8,24.9c0,2.8-1.4,4.1-4.2,4.1a4.9,4.9,0,0,1-2.5-.5V27a4.1,4.1,0,0,0,2.3.7c1.8,0,2.7-.9,2.7-2.6v-.9H67a2.6,2.6,0,0,1-2.5,1.5,2.9,2.9,0,0,1-2.2-1,4,4,0,0,1-.8-2.7,4.5,4.5,0,0,1,.9-3,2.9,2.9,0,0,1,2.4-1.2A2.3,2.3,0,0,1,67,19h.1V18h1.7Zm-1.7-2.8v-1a2.4,2.4,0,0,0-.5-1.4,2.2,2.2,0,0,0-1.4-.5,1.8,1.8,0,0,0-1.5.7,3.7,3.7,0,0,0-.5,2,3.5,3.5,0,0,0,.5,1.8,1.8,1.8,0,0,0,1.4.6,1.7,1.7,0,0,0,1.4-.6A2.3,2.3,0,0,0,67.1,22.1Z" fill="#fff"/><path d="M77.6,24.9c0,2.8-1.3,4.1-4.1,4.1a5.5,5.5,0,0,1-2.6-.5V27a4.7,4.7,0,0,0,2.4.7,2.3,2.3,0,0,0,2.6-2.6v-.9h0a2.6,2.6,0,0,1-2.5,1.5,2.9,2.9,0,0,1-2.2-1,4,4,0,0,1-.9-2.7,4.5,4.5,0,0,1,.9-3,3,3,0,0,1,2.5-1.2A2.4,2.4,0,0,1,75.9,19h0V18h1.7ZM76,22.1v-1a2,2,0,0,0-.6-1.4,1.7,1.7,0,0,0-1.3-.5,1.8,1.8,0,0,0-1.5.7,3.7,3.7,0,0,0-.5,2,2.7,2.7,0,0,0,.5,1.8,1.7,1.7,0,0,0,1.4.6,1.8,1.8,0,0,0,1.4-.6A2.3,2.3,0,0,0,76,22.1Z" fill="#fff"/><path d="M85.5,25.5H83.8V24.3h0a2.5,2.5,0,0,1-2.3,1.4,2.4,2.4,0,0,1-1.7-.6,2.3,2.3,0,0,1-.6-1.6A2.4,2.4,0,0,1,81.6,21l2.2-.3c0-1.1-.5-1.6-1.5-1.6a3.6,3.6,0,0,0-2.4.9V18.5a6,6,0,0,1,2.7-.7,2.6,2.6,0,0,1,2.9,2.8Zm-1.7-3.7-1.5.2-1.2.4a1.2,1.2,0,0,0-.3.9,1.1,1.1,0,0,0,.3.8,1.4,1.4,0,0,0,.9.3,1.6,1.6,0,0,0,1.3-.6,1.5,1.5,0,0,0,.5-1.3Z" fill="#fff"/><path d="M92.2,16.4l-.7-.2a1.1,1.1,0,0,1-.3-.7,1,1,0,0,1,1-1,1.1,1.1,0,0,1,.8.3.9.9,0,0,1,.3.7.7.7,0,0,1-.3.6A1.1,1.1,0,0,1,92.2,16.4Zm.9,9.1H91.4V18h1.7Z" fill="#fff"/><path d="M101.8,25.5h-1.7V21.3q0-2.1-1.5-2.1a1.8,1.8,0,0,0-1.3.6,2,2,0,0,0-.5,1.4v4.3H95.1V18h1.7v1.2h.1a2.7,2.7,0,0,1,4.3-.6,3.7,3.7,0,0,1,.6,2.3Z" fill="#fff"/><path d="M118.9,25.5h-1.7V21.4a3.7,3.7,0,0,0-.3-1.7,1.3,1.3,0,0,0-1.1-.5,1.4,1.4,0,0,0-1.2.6,2.9,2.9,0,0,0-.4,1.6v4.1h-1.7V21.3q0-2.1-1.5-2.1a1.4,1.4,0,0,0-1.2.6,3.8,3.8,0,0,0-.4,1.6v4.1h-1.7V18h1.7v1.2h0a2.8,2.8,0,0,1,2.4-1.4,2.4,2.4,0,0,1,1.4.5,2.4,2.4,0,0,1,.8,1.1,2.5,2.5,0,0,1,2.4-1.6c1.7,0,2.5,1,2.5,3.1Z" fill="#fff"/><path d="M127.2,22.2h-5.1a2.1,2.1,0,0,0,.6,1.6,2.4,2.4,0,0,0,1.7.6,4.4,4.4,0,0,0,2.2-.7V25a4.5,4.5,0,0,1-2.7.7,3.6,3.6,0,0,1-2.6-1,4.4,4.4,0,0,1-.9-2.9,4.1,4.1,0,0,1,1-2.9,3.5,3.5,0,0,1,2.6-1.1,3.3,3.3,0,0,1,2.4,1,4.7,4.7,0,0,1,.8,2.8ZM125.6,21a2.6,2.6,0,0,0-.5-1.4,1.3,1.3,0,0,0-1.2-.5,1.8,1.8,0,0,0-1.2.5,3,3,0,0,0-.6,1.4Z" fill="#fff"/><path d="M135.5,25.5h-1.7V24.2h0a2.8,2.8,0,0,1-2.6,1.5,3,3,0,0,1-2.2-1,4.7,4.7,0,0,1-.8-2.8,4.9,4.9,0,0,1,.9-3,3,3,0,0,1,2.4-1.1,2.5,2.5,0,0,1,2.3,1.2h0V14.4h1.7Zm-1.7-3.4v-1a2.4,2.4,0,0,0-.5-1.4,2.1,2.1,0,0,0-1.3-.5,1.6,1.6,0,0,0-1.5.7,3,3,0,0,0-.6,2,3.5,3.5,0,0,0,.5,1.8,2,2,0,0,0,1.4.6,2,2,0,0,0,1.5-.6A2.8,2.8,0,0,0,133.8,22.1Z" fill="#fff"/><path d="M153,25.5h-1.7V18.7a14.8,14.8,0,0,1,.1-2h-.1a5.1,5.1,0,0,0-.2.9l-3.2,7.9h-1.2l-3.1-7.8a6.2,6.2,0,0,1-.3-1h0v8.8h-1.6V15h2.5l2.7,7a4.1,4.1,0,0,1,.4,1.2h.1c.2-.6.3-1,.4-1.2l2.8-7H153Z" fill="#fff"/><path d="M156.1,16.4l-.7-.2a1.1,1.1,0,0,1-.3-.7,1,1,0,0,1,2,0,.7.7,0,0,1-.3.6A.9.9,0,0,1,156.1,16.4Zm.8,9.1h-1.7V18h1.7Z" fill="#fff"/><path d="M164.4,25.2a4.8,4.8,0,0,1-2.2.5,3.7,3.7,0,0,1-2.7-1.1,4.1,4.1,0,0,1-1-2.7,4.4,4.4,0,0,1,1.1-3,4.2,4.2,0,0,1,3-1.1,3.4,3.4,0,0,1,1.8.4v1.6a2.7,2.7,0,0,0-1.7-.6,2.4,2.4,0,0,0-1.8.7,2.9,2.9,0,0,0-.6,1.9,2.9,2.9,0,0,0,.6,1.9,2.4,2.4,0,0,0,1.7.6,3,3,0,0,0,1.8-.6Z" fill="#fff"/><path d="M170.3,19.6l-.9-.2a1.6,1.6,0,0,0-1.3.7,3,3,0,0,0-.5,1.8v3.6h-1.7V18h1.7v1.5h0a3.6,3.6,0,0,1,.8-1.2,1.6,1.6,0,0,1,1.2-.4h.7Z" fill="#fff"/><path d="M174.5,25.7a3.8,3.8,0,0,1-2.8-1.1,3.7,3.7,0,0,1-1-2.8,3.8,3.8,0,0,1,4-4,3.4,3.4,0,0,1,2.7,1.1,3.6,3.6,0,0,1,1,2.8,3.9,3.9,0,0,1-1,2.9A4.2,4.2,0,0,1,174.5,25.7Zm.1-6.5a1.9,1.9,0,0,0-1.6.7,2.7,2.7,0,0,0-.6,1.9,2.9,2.9,0,0,0,.6,1.9,2.1,2.1,0,0,0,1.6.6,1.8,1.8,0,0,0,1.5-.6,2.9,2.9,0,0,0,.6-1.9,2.5,2.5,0,0,0-.6-1.9A1.6,1.6,0,0,0,174.6,19.2Z" fill="#fff"/><path d="M179.5,25.3V23.7a3.5,3.5,0,0,0,2.1.7c1,0,1.6-.3,1.6-.9a.5.5,0,0,0-.2-.4c-.1-.1-.2-.3-.3-.3l-.6-.3-.6-.2-.9-.4-.6-.5c-.1-.2-.3-.4-.3-.6a1.9,1.9,0,0,1-.2-.8,1.6,1.6,0,0,1,.3-.9,2.3,2.3,0,0,1,.7-.7l1-.4,1.1-.2a4.8,4.8,0,0,1,1.8.3v1.5a3.5,3.5,0,0,0-1.8-.5h-1l-.3.3c0,.1-.1.2-.1.4s.1.3.1.4l.3.3.5.2.7.2.8.5.7.4a2.1,2.1,0,0,1,.4.6,1.9,1.9,0,0,1,.1.8,1.6,1.6,0,0,1-.2,1,2.3,2.3,0,0,1-.7.7,2.1,2.1,0,0,1-1,.4l-1.2.2A6.7,6.7,0,0,1,179.5,25.3Z" fill="#fff"/><path d="M189.6,25.7a3.5,3.5,0,0,1-2.7-1.1,3.8,3.8,0,0,1-1.1-2.8,3.8,3.8,0,0,1,4-4,3.8,3.8,0,0,1,2.8,1.1,3.9,3.9,0,0,1,.9,2.8,3.9,3.9,0,0,1-1,2.9A4,4,0,0,1,189.6,25.7Zm.1-6.5a1.9,1.9,0,0,0-1.6.7,3.3,3.3,0,0,0-.5,1.9,3.6,3.6,0,0,0,.5,1.9,2.3,2.3,0,0,0,1.6.6,2.1,2.1,0,0,0,1.6-.6,3.6,3.6,0,0,0,.5-1.9,3.1,3.1,0,0,0-.5-1.9A1.9,1.9,0,0,0,189.7,19.2Z" fill="#fff"/><path d="M199.1,15.8a1.1,1.1,0,0,0-.8-.2c-.8,0-1.2.4-1.2,1.4v1h1.7v1.3h-1.7v6.2h-1.7V19.3h-1.3V18h1.3V16.8a2.2,2.2,0,0,1,.8-1.9,2.9,2.9,0,0,1,1.9-.7l1,.2Z" fill="#fff"/><path d="M204.1,25.4a2.5,2.5,0,0,1-1.3.3,1.9,1.9,0,0,1-2.2-2.1V19.3h-1.2V18h1.2V16.3l1.7-.5V18h1.8v1.3h-1.8v3.8a1.2,1.2,0,0,0,.3.9c.1.2.4.3.8.3l.7-.2Z" fill="#fff"/></svg>