<?xml version="1.0" encoding="utf-8"?>
<!-- Generator: Adobe Illustrator 22.1.0, SVG Export Plug-In . SVG Version: 6.00 Build 0)  -->
<svg version="1.1" xmlns="http://www.w3.org/2000/svg" xmlns:xlink="http://www.w3.org/1999/xlink" x="0px" y="0px"
	 viewBox="0 0 215 41" style="enable-background:new 0 0 215 41;" xml:space="preserve">
<style type="text/css">
	.st0{fill:#FFFFFF;}
	.st1{fill:#8C8C8C;}
	.st2{fill:#F25022;}
	.st3{fill:#00A4EF;}
	.st4{fill:#7FBA00;}
	.st5{fill:#FFB900;}
	.st6{fill:#5E5E5E;}
</style>
<g id="Layer_1">
	<title>MS-SymbolLockup</title>
	<rect class="st0" width="215" height="41"/>
	<path class="st1" d="M214,1v39H1V1H214 M215,0H0v41h215V0z"/>
	<rect x="13" y="11" class="st2" width="9" height="9"/>
	<rect x="13" y="21" class="st3" width="9" height="9"/>
	<rect x="23" y="11" class="st4" width="9" height="9"/>
	<rect x="23" y="21" class="st5" width="9" height="9"/>
</g>
<g id="Layer_2">
	<g>
		<path class="st6" d="M51.5,25.5h-5.8V15h1.7v9h4.1V25.5z"/>
		<path class="st6" d="M55.8,25.7c-1.2,0-2.1-0.4-2.8-1.1c-0.7-0.7-1-1.6-1-2.8c0-1.3,0.4-2.2,1.1-3c0.7-0.7,1.7-1.1,2.9-1.1
			c1.2,0,2.1,0.3,2.7,1s1,1.6,1,2.9c0,1.2-0.4,2.2-1.1,2.9C58,25.3,57,25.7,55.8,25.7z M55.9,19.2c-0.7,0-1.2,0.2-1.6,0.7
			c-0.4,0.5-0.6,1.1-0.6,1.9c0,0.8,0.2,1.4,0.6,1.9c0.4,0.5,0.9,0.7,1.6,0.7c0.7,0,1.2-0.2,1.5-0.7c0.4-0.4,0.5-1.1,0.5-1.9
			c0-0.8-0.2-1.5-0.5-1.9C57.1,19.4,56.6,19.2,55.9,19.2z"/>
		<path class="st6" d="M67.9,24.9c0,2.8-1.4,4.1-4.2,4.1c-1,0-1.8-0.2-2.6-0.5V27c0.8,0.5,1.6,0.7,2.3,0.7c1.8,0,2.7-0.9,2.7-2.6
			v-0.8h0c-0.6,1-1.4,1.4-2.5,1.4c-0.9,0-1.6-0.3-2.2-1c-0.6-0.7-0.8-1.6-0.8-2.7c0-1.3,0.3-2.3,0.9-3s1.4-1.1,2.5-1.1
			c1,0,1.7,0.4,2.2,1.2h0v-1h1.7V24.9z M66.2,22.1v-1c0-0.5-0.2-1-0.5-1.4c-0.3-0.4-0.8-0.6-1.3-0.6c-0.6,0-1.1,0.2-1.5,0.7
			c-0.4,0.5-0.5,1.1-0.5,2c0,0.7,0.2,1.3,0.5,1.8c0.3,0.4,0.8,0.7,1.4,0.7c0.6,0,1.1-0.2,1.4-0.6C66,23.3,66.2,22.7,66.2,22.1z"/>
		<path class="st6" d="M76.6,24.9c0,2.8-1.4,4.1-4.2,4.1c-1,0-1.8-0.2-2.6-0.5V27c0.8,0.5,1.6,0.7,2.3,0.7c1.8,0,2.7-0.9,2.7-2.6
			v-0.8h0c-0.6,1-1.4,1.4-2.5,1.4c-0.9,0-1.6-0.3-2.2-1c-0.6-0.7-0.8-1.6-0.8-2.7c0-1.3,0.3-2.3,0.9-3s1.4-1.1,2.5-1.1
			c1,0,1.7,0.4,2.2,1.2h0v-1h1.7V24.9z M74.9,22.1v-1c0-0.5-0.2-1-0.5-1.4c-0.3-0.4-0.8-0.6-1.3-0.6c-0.6,0-1.1,0.2-1.5,0.7
			c-0.4,0.5-0.5,1.1-0.5,2c0,0.7,0.2,1.3,0.5,1.8c0.3,0.4,0.8,0.7,1.4,0.7c0.6,0,1.1-0.2,1.4-0.6C74.7,23.3,74.9,22.7,74.9,22.1z"/>
		<path class="st6" d="M84.2,25.5h-1.6v-1.2h0c-0.5,0.9-1.3,1.3-2.3,1.3c-0.7,0-1.3-0.2-1.7-0.6c-0.4-0.4-0.6-0.9-0.6-1.6
			c0-1.4,0.8-2.2,2.4-2.5l2.2-0.3c0-1.1-0.5-1.6-1.5-1.6c-0.9,0-1.7,0.3-2.4,0.9v-1.5c0.8-0.5,1.7-0.7,2.7-0.7
			c1.9,0,2.8,0.9,2.8,2.8V25.5z M82.5,21.8L80.9,22c-0.5,0.1-0.9,0.2-1.1,0.4c-0.2,0.2-0.4,0.5-0.4,0.9c0,0.3,0.1,0.6,0.3,0.8
			c0.2,0.2,0.5,0.3,0.9,0.3c0.5,0,0.9-0.2,1.3-0.5c0.3-0.4,0.5-0.8,0.5-1.4V21.8z"/>
		<path class="st6" d="M90.5,16.4c-0.3,0-0.5-0.1-0.7-0.3c-0.2-0.2-0.3-0.4-0.3-0.7s0.1-0.5,0.3-0.7c0.2-0.2,0.4-0.3,0.7-0.3
			c0.3,0,0.5,0.1,0.7,0.3s0.3,0.4,0.3,0.7c0,0.3-0.1,0.5-0.3,0.7S90.8,16.4,90.5,16.4z M91.3,25.5h-1.7V18h1.7V25.5z"/>
		<path class="st6" d="M99.8,25.5h-1.7v-4.2c0-1.4-0.5-2.1-1.5-2.1c-0.5,0-0.9,0.2-1.3,0.6c-0.3,0.4-0.5,0.9-0.5,1.5v4.3h-1.7V18
			h1.7v1.2h0c0.6-0.9,1.4-1.4,2.4-1.4c0.8,0,1.4,0.3,1.9,0.8s0.6,1.3,0.6,2.3V25.5z"/>
		<path class="st6" d="M116.5,25.5h-1.7v-4.1c0-0.8-0.1-1.4-0.3-1.7c-0.2-0.4-0.6-0.5-1.1-0.5c-0.4,0-0.8,0.2-1.1,0.7
			c-0.3,0.4-0.5,1-0.5,1.6v4.1H110v-4.2c0-1.4-0.5-2.1-1.5-2.1c-0.5,0-0.8,0.2-1.1,0.6c-0.3,0.4-0.4,1-0.4,1.6v4.1h-1.7V18h1.7v1.2
			h0c0.5-0.9,1.3-1.4,2.4-1.4c0.5,0,1,0.1,1.4,0.4c0.4,0.3,0.7,0.7,0.8,1.1c0.6-1,1.4-1.6,2.5-1.6c1.7,0,2.5,1,2.5,3.1V25.5z"/>
		<path class="st6" d="M124.5,22.2h-5.1c0,0.7,0.2,1.2,0.6,1.6c0.4,0.4,1,0.6,1.7,0.6c0.8,0,1.5-0.2,2.2-0.7V25
			c-0.7,0.4-1.6,0.6-2.7,0.6c-1.1,0-2-0.3-2.6-1c-0.6-0.7-0.9-1.6-0.9-2.9c0-1.2,0.3-2.1,1-2.9c0.7-0.7,1.5-1.1,2.6-1.1
			s1.8,0.3,2.4,1s0.8,1.6,0.8,2.7V22.2z M122.9,21c0-0.6-0.1-1.1-0.4-1.4s-0.7-0.5-1.2-0.5c-0.5,0-0.9,0.2-1.2,0.5
			c-0.3,0.4-0.5,0.8-0.6,1.4H122.9z"/>
		<path class="st6" d="M132.6,25.5h-1.7v-1.3h0c-0.5,1-1.4,1.5-2.5,1.5c-0.9,0-1.7-0.3-2.2-1c-0.6-0.7-0.8-1.6-0.8-2.7
			c0-1.2,0.3-2.2,0.9-3c0.6-0.7,1.4-1.1,2.5-1.1c1,0,1.7,0.4,2.2,1.2h0v-4.6h1.7V25.5z M130.9,22.1v-1c0-0.5-0.2-1-0.5-1.4
			s-0.8-0.6-1.3-0.6c-0.6,0-1.1,0.2-1.5,0.7c-0.4,0.5-0.5,1.1-0.5,2c0,0.8,0.2,1.4,0.5,1.8c0.3,0.4,0.8,0.7,1.4,0.7
			c0.6,0,1.1-0.2,1.4-0.6C130.7,23.3,130.9,22.7,130.9,22.1z"/>
		<path class="st6" d="M149.7,25.5h-1.7v-6.8c0-0.6,0-1.2,0.1-2h0c-0.1,0.5-0.2,0.8-0.3,1l-3.1,7.9h-1.2l-3.1-7.8
			c-0.1-0.2-0.2-0.6-0.3-1h0c0,0.4,0.1,1.1,0.1,2.1v6.8h-1.6V15h2.5l2.8,7c0.2,0.5,0.3,0.9,0.4,1.2h0c0.2-0.6,0.3-1,0.4-1.2l2.8-7
			h2.4V25.5z"/>
		<path class="st6" d="M152.5,16.4c-0.3,0-0.5-0.1-0.7-0.3c-0.2-0.2-0.3-0.4-0.3-0.7s0.1-0.5,0.3-0.7c0.2-0.2,0.4-0.3,0.7-0.3
			c0.3,0,0.5,0.1,0.7,0.3s0.3,0.4,0.3,0.7c0,0.3-0.1,0.5-0.3,0.7S152.8,16.4,152.5,16.4z M153.4,25.5h-1.7V18h1.7V25.5z"/>
		<path class="st6" d="M160.6,25.2c-0.6,0.3-1.3,0.5-2.1,0.5c-1.1,0-2-0.3-2.7-1c-0.7-0.7-1-1.6-1-2.7c0-1.2,0.4-2.2,1.1-3
			c0.7-0.7,1.7-1.1,2.9-1.1c0.7,0,1.3,0.1,1.8,0.4v1.6c-0.5-0.4-1.1-0.6-1.7-0.6c-0.7,0-1.3,0.2-1.8,0.7s-0.7,1.1-0.7,1.9
			c0,0.8,0.2,1.4,0.6,1.8c0.4,0.4,1,0.7,1.7,0.7c0.6,0,1.2-0.2,1.7-0.7V25.2z"/>
		<path class="st6" d="M166.3,19.6c-0.2-0.2-0.5-0.2-0.9-0.2c-0.5,0-0.9,0.2-1.3,0.7s-0.5,1.1-0.5,1.9v3.6h-1.7V18h1.7v1.5h0
			c0.2-0.5,0.4-0.9,0.8-1.2c0.3-0.3,0.7-0.4,1.2-0.4c0.3,0,0.5,0,0.7,0.1V19.6z"/>
		<path class="st6" d="M170.3,25.7c-1.2,0-2.1-0.4-2.8-1.1c-0.7-0.7-1-1.6-1-2.8c0-1.3,0.4-2.2,1.1-3c0.7-0.7,1.7-1.1,2.9-1.1
			c1.2,0,2.1,0.3,2.7,1s1,1.6,1,2.9c0,1.2-0.4,2.2-1.1,2.9C172.4,25.3,171.5,25.7,170.3,25.7z M170.4,19.2c-0.7,0-1.2,0.2-1.6,0.7
			c-0.4,0.5-0.6,1.1-0.6,1.9c0,0.8,0.2,1.4,0.6,1.9c0.4,0.5,0.9,0.7,1.6,0.7c0.7,0,1.2-0.2,1.5-0.7c0.4-0.4,0.5-1.1,0.5-1.9
			c0-0.8-0.2-1.5-0.5-1.9C171.5,19.4,171,19.2,170.4,19.2z"/>
		<path class="st6" d="M175.1,25.3v-1.6c0.6,0.5,1.3,0.7,2.1,0.7c1,0,1.5-0.3,1.5-0.9c0-0.2,0-0.3-0.1-0.4c-0.1-0.1-0.2-0.2-0.4-0.3
			c-0.1-0.1-0.3-0.2-0.5-0.2c-0.2-0.1-0.4-0.2-0.7-0.2c-0.3-0.1-0.6-0.3-0.8-0.4c-0.2-0.1-0.5-0.3-0.6-0.5c-0.2-0.2-0.3-0.4-0.4-0.6
			c-0.1-0.2-0.1-0.5-0.1-0.8c0-0.4,0.1-0.7,0.3-1s0.4-0.5,0.7-0.7c0.3-0.2,0.6-0.3,1-0.4c0.4-0.1,0.7-0.1,1.1-0.1
			c0.7,0,1.3,0.1,1.9,0.3v1.5c-0.5-0.4-1.1-0.5-1.8-0.5c-0.2,0-0.4,0-0.6,0.1c-0.2,0-0.3,0.1-0.4,0.2s-0.2,0.2-0.3,0.3
			c-0.1,0.1-0.1,0.2-0.1,0.4c0,0.2,0,0.3,0.1,0.4c0.1,0.1,0.2,0.2,0.3,0.3c0.1,0.1,0.3,0.2,0.5,0.2c0.2,0.1,0.4,0.1,0.6,0.2
			c0.3,0.1,0.6,0.3,0.9,0.4c0.3,0.1,0.5,0.3,0.7,0.5c0.2,0.2,0.3,0.4,0.4,0.6c0.1,0.2,0.1,0.5,0.1,0.8c0,0.4-0.1,0.7-0.3,1
			s-0.4,0.5-0.7,0.7s-0.6,0.3-1,0.4c-0.4,0.1-0.8,0.1-1.2,0.1C176.4,25.7,175.7,25.5,175.1,25.3z"/>
		<path class="st6" d="M185,25.7c-1.2,0-2.1-0.4-2.8-1.1c-0.7-0.7-1-1.6-1-2.8c0-1.3,0.4-2.2,1.1-3c0.7-0.7,1.7-1.1,2.9-1.1
			c1.2,0,2.1,0.3,2.7,1s1,1.6,1,2.9c0,1.2-0.4,2.2-1.1,2.9C187.1,25.3,186.1,25.7,185,25.7z M185,19.2c-0.7,0-1.2,0.2-1.6,0.7
			c-0.4,0.5-0.6,1.1-0.6,1.9c0,0.8,0.2,1.4,0.6,1.9c0.4,0.5,0.9,0.7,1.6,0.7c0.7,0,1.2-0.2,1.5-0.7c0.4-0.4,0.5-1.1,0.5-1.9
			c0-0.8-0.2-1.5-0.5-1.9C186.2,19.4,185.7,19.2,185,19.2z"/>
		<path class="st6" d="M194.2,15.8c-0.2-0.1-0.5-0.2-0.8-0.2c-0.8,0-1.2,0.5-1.2,1.4v1h1.7v1.3h-1.7v6.2h-1.7v-6.2h-1.3V18h1.3v-1.2
			c0-0.8,0.3-1.4,0.8-1.9c0.5-0.5,1.2-0.7,1.9-0.7c0.4,0,0.8,0,1,0.1V15.8z"/>
		<path class="st6" d="M199,25.4c-0.3,0.2-0.8,0.2-1.3,0.2c-1.5,0-2.2-0.7-2.2-2.1v-4.2h-1.3V18h1.3v-1.7l1.7-0.5V18h1.8v1.3h-1.8
			v3.8c0,0.4,0.1,0.8,0.2,1c0.2,0.2,0.4,0.3,0.8,0.3c0.3,0,0.5-0.1,0.7-0.2V25.4z"/>
	</g>
</g>
</svg>
