<?xml version="1.0" encoding="utf-8"?>
<!-- Generator: Adobe Illustrator 22.1.0, SVG Export Plug-In . SVG Version: 6.00 Build 0)  -->
<svg version="1.1" id="Layer_1" xmlns="http://www.w3.org/2000/svg" xmlns:xlink="http://www.w3.org/1999/xlink" x="0px" y="0px"
	 viewBox="0 0 117 41" style="enable-background:new 0 0 117 41;" xml:space="preserve">
<style type="text/css">
	.st0{enable-background:new    ;}
	.st1{fill:#FFFFFF;}
</style>
<image style="overflow:visible;enable-background:new    ;" width="117" height="41" id="Background_copy" xlink:href="3CE7A932.jpg"  transform="matrix(1 0 0 1 0 1.682073e-05)">
</image>
<g id="Logga_in" class="st0">
	<path class="st1" d="M51.8,25.3h-5.6V15.2h1.7v8.7h3.9V25.3z"/>
	<path class="st1" d="M56.3,25.5c-1.1,0-2-0.3-2.7-1c-0.7-0.7-1-1.6-1-2.7c0-1.2,0.3-2.2,1-2.8s1.6-1,2.8-1c1.1,0,2,0.3,2.6,1
		c0.6,0.7,0.9,1.6,0.9,2.7c0,1.1-0.3,2.1-1,2.8C58.3,25.1,57.4,25.5,56.3,25.5z M56.4,19.3c-0.6,0-1.1,0.2-1.5,0.7
		c-0.4,0.4-0.6,1.1-0.6,1.8c0,0.8,0.2,1.3,0.6,1.8s0.9,0.7,1.5,0.7c0.6,0,1.1-0.2,1.5-0.6c0.3-0.4,0.5-1,0.5-1.8
		c0-0.8-0.2-1.4-0.5-1.8C57.5,19.5,57,19.3,56.4,19.3z"/>
	<path class="st1" d="M68.3,24.7c0,2.6-1.3,4-4,4c-0.9,0-1.8-0.2-2.5-0.5v-1.5c0.8,0.4,1.5,0.7,2.2,0.7c1.7,0,2.6-0.8,2.6-2.5v-0.8
		h0c-0.5,0.9-1.3,1.4-2.4,1.4c-0.9,0-1.6-0.3-2.1-1S61.2,23,61.2,22c0-1.2,0.3-2.2,0.9-2.9c0.6-0.7,1.4-1.1,2.4-1.1
		c1,0,1.7,0.4,2.1,1.2h0v-1h1.6V24.7z M66.6,22v-0.9c0-0.5-0.2-0.9-0.5-1.3c-0.3-0.4-0.8-0.5-1.3-0.5c-0.6,0-1.1,0.2-1.5,0.7
		c-0.3,0.5-0.5,1.1-0.5,1.9c0,0.7,0.2,1.3,0.5,1.7c0.3,0.4,0.8,0.6,1.3,0.6c0.6,0,1-0.2,1.4-0.6S66.6,22.7,66.6,22z"/>
	<path class="st1" d="M76.9,24.7c0,2.6-1.3,4-4,4c-0.9,0-1.8-0.2-2.5-0.5v-1.5c0.8,0.4,1.5,0.7,2.2,0.7c1.7,0,2.6-0.8,2.6-2.5v-0.8
		h0c-0.5,0.9-1.4,1.4-2.4,1.4c-0.9,0-1.6-0.3-2.1-1c-0.5-0.6-0.8-1.5-0.8-2.6c0-1.2,0.3-2.2,0.9-2.9c0.6-0.7,1.4-1.1,2.4-1.1
		c1,0,1.7,0.4,2.1,1.2h0v-1h1.6V24.7z M75.3,22v-0.9c0-0.5-0.2-0.9-0.5-1.3c-0.3-0.4-0.8-0.5-1.3-0.5c-0.6,0-1.1,0.2-1.5,0.7
		s-0.5,1.1-0.5,1.9c0,0.7,0.2,1.3,0.5,1.7c0.3,0.4,0.8,0.6,1.3,0.6c0.6,0,1-0.2,1.4-0.6S75.3,22.7,75.3,22z"/>
	<path class="st1" d="M84.6,25.3H83v-1.1h0c-0.5,0.9-1.2,1.3-2.2,1.3c-0.7,0-1.3-0.2-1.7-0.6c-0.4-0.4-0.6-0.9-0.6-1.5
		c0-1.4,0.8-2.2,2.3-2.4l2.1-0.3c0-1-0.5-1.5-1.5-1.5c-0.9,0-1.6,0.3-2.3,0.9v-1.4c0.8-0.5,1.6-0.7,2.6-0.7c1.8,0,2.7,0.9,2.7,2.7
		V25.3z M83,21.8L81.5,22c-0.5,0.1-0.8,0.2-1.1,0.3c-0.2,0.2-0.4,0.5-0.4,0.9c0,0.3,0.1,0.6,0.3,0.7s0.5,0.3,0.9,0.3
		c0.5,0,0.9-0.2,1.2-0.5c0.3-0.3,0.5-0.8,0.5-1.3V21.8z"/>
	<path class="st1" d="M91.4,16.6c-0.3,0-0.5-0.1-0.7-0.3c-0.2-0.2-0.3-0.4-0.3-0.7c0-0.3,0.1-0.5,0.3-0.7s0.4-0.3,0.7-0.3
		c0.3,0,0.5,0.1,0.7,0.3c0.2,0.2,0.3,0.4,0.3,0.7c0,0.3-0.1,0.5-0.3,0.7C91.9,16.5,91.6,16.6,91.4,16.6z M92.2,25.3h-1.6v-7.2h1.6
		V25.3z"/>
	<path class="st1" d="M100.7,25.3h-1.6v-4.1c0-1.3-0.5-2-1.4-2c-0.5,0-0.9,0.2-1.2,0.6c-0.3,0.4-0.5,0.8-0.5,1.4v4.1h-1.6v-7.2h1.6
		v1.2h0c0.5-0.9,1.3-1.4,2.3-1.4c0.8,0,1.4,0.3,1.8,0.8c0.4,0.5,0.6,1.2,0.6,2.2V25.3z"/>
</g>
</svg>
